<svg width="86" height="86" viewBox="0 0 86 86" fill="none" xmlns="http://www.w3.org/2000/svg">
<path d="M65.1143 39.9286C73.2566 39.9286 79.8572 31.6778 79.8572 21.5C79.8572 11.3222 73.2566 3.07144 65.1143 3.07144C56.9721 3.07144 50.3715 11.3222 50.3715 21.5C50.3715 31.6778 56.9721 39.9286 65.1143 39.9286Z" stroke="black" stroke-linecap="round" stroke-linejoin="round"/>
<path d="M65.1143 39.9286V82.9286M21.5 3.07144V82.9286M36.8572 3.07144V18.4286C36.8572 20.4453 36.4599 22.4423 35.6882 24.3055C34.9164 26.1687 33.7852 27.8617 32.3592 29.2877C30.9331 30.7138 29.2402 31.845 27.3769 32.6167C25.5137 33.3885 23.5168 33.7857 21.5 33.7857C17.4271 33.7857 13.5209 32.1677 10.6409 29.2877C7.76086 26.4077 6.14288 22.5016 6.14288 18.4286V3.07144" stroke="black" stroke-linecap="round" stroke-linejoin="round"/>
</svg>
