<svg width="76" height="76" viewBox="0 0 76 76" fill="none" xmlns="http://www.w3.org/2000/svg">
<path d="M66.671 58.7746L52.3108 44.4144C54.5495 40.74 55.7303 36.519 55.7232 32.2164C55.7232 19.2318 44.4714 7.9838 31.4868 7.9838C28.3997 7.9833 25.3427 8.59098 22.4905 9.77213C19.6383 10.9533 17.0468 12.6848 14.8639 14.8677C12.681 17.0506 10.9495 19.6421 9.76833 22.4943C8.58718 25.3465 7.9795 28.4035 7.98 31.4906C7.98 44.4714 19.2318 55.7232 32.2126 55.7232C36.3734 55.7269 40.4598 54.6197 44.0496 52.516L58.4858 66.9598C59.1647 67.6369 60.0844 68.0172 61.0432 68.0172C62.002 68.0172 62.9217 67.6369 63.6006 66.9598L67.184 63.3764C68.5938 61.9666 68.0808 60.1844 66.671 58.7746ZM15.2152 31.4906C15.2147 29.3535 15.6352 27.2372 16.4527 25.2626C17.2702 23.288 18.4687 21.4937 19.9797 19.9824C21.4907 18.471 23.2846 17.2721 25.2591 16.4542C27.2335 15.6362 29.3497 15.2152 31.4868 15.2152C40.4776 15.2152 48.488 23.2218 48.488 32.2164C48.487 36.5326 46.7719 40.6717 43.7199 43.7237C40.6679 46.7757 36.5288 48.4908 32.2126 48.4918C23.2218 48.488 15.2152 40.4776 15.2152 31.4906Z" fill="black"/>
</svg>
